<mxfile host="app.diagrams.net" modified="2023-11-01T23:28:42.818Z" agent="Mozilla/5.0 (Windows NT 10.0; Win64; x64) AppleWebKit/537.36 (KHTML, like Gecko) Chrome/118.0.0.0 Safari/537.36" etag="RcLUYjJuoZKWhV4BXfX7" version="22.0.8" type="google">
  <diagram name="Pagina-1" id="5ckkn2RxdnRWuUWS74Vg">
    <mxGraphModel dx="3500" dy="1767" grid="1" gridSize="10" guides="1" tooltips="1" connect="1" arrows="1" fold="1" page="1" pageScale="1" pageWidth="2200" pageHeight="1200" math="0" shadow="0">
      <root>
        <mxCell id="0" />
        <mxCell id="1" parent="0" />
        <mxCell id="xCjP7E_u_oAMayQavCic-2" value="" style="ellipse;whiteSpace=wrap;html=1;aspect=fixed;fillColor=#080808;" vertex="1" parent="1">
          <mxGeometry x="30" y="150" width="40" height="40" as="geometry" />
        </mxCell>
        <mxCell id="xCjP7E_u_oAMayQavCic-3" value="Login*" style="rounded=0;whiteSpace=wrap;html=1;" vertex="1" parent="1">
          <mxGeometry x="170" y="140" width="110" height="60" as="geometry" />
        </mxCell>
        <mxCell id="xCjP7E_u_oAMayQavCic-4" value="" style="endArrow=classic;html=1;rounded=0;exitX=1;exitY=0.5;exitDx=0;exitDy=0;entryX=0;entryY=0.5;entryDx=0;entryDy=0;" edge="1" parent="1" source="xCjP7E_u_oAMayQavCic-2" target="xCjP7E_u_oAMayQavCic-3">
          <mxGeometry width="50" height="50" relative="1" as="geometry">
            <mxPoint x="180" y="260" as="sourcePoint" />
            <mxPoint x="230" y="210" as="targetPoint" />
          </mxGeometry>
        </mxCell>
        <mxCell id="xCjP7E_u_oAMayQavCic-7" value="&lt;font style=&quot;font-size: 14px;&quot;&gt;Show&amp;nbsp; membership historty&lt;/font&gt;" style="rounded=0;whiteSpace=wrap;html=1;" vertex="1" parent="1">
          <mxGeometry x="510" y="140" width="120" height="60" as="geometry" />
        </mxCell>
        <mxCell id="xCjP7E_u_oAMayQavCic-8" value="" style="endArrow=classic;html=1;rounded=0;exitX=1;exitY=0.5;exitDx=0;exitDy=0;entryX=0;entryY=0.5;entryDx=0;entryDy=0;" edge="1" parent="1" source="xCjP7E_u_oAMayQavCic-3" target="xCjP7E_u_oAMayQavCic-7">
          <mxGeometry width="50" height="50" relative="1" as="geometry">
            <mxPoint x="300" y="180" as="sourcePoint" />
            <mxPoint x="350" y="130" as="targetPoint" />
          </mxGeometry>
        </mxCell>
        <mxCell id="xCjP7E_u_oAMayQavCic-9" value="&lt;font style=&quot;font-size: 14px;&quot;&gt;[action==membership_menu]&lt;/font&gt;" style="text;html=1;strokeColor=none;fillColor=none;align=center;verticalAlign=middle;whiteSpace=wrap;rounded=0;" vertex="1" parent="1">
          <mxGeometry x="370" y="140" width="60" height="30" as="geometry" />
        </mxCell>
        <mxCell id="xCjP7E_u_oAMayQavCic-12" value="&lt;font style=&quot;font-size: 14px;&quot;&gt;Select a membership plan&lt;/font&gt;" style="rounded=0;whiteSpace=wrap;html=1;" vertex="1" parent="1">
          <mxGeometry x="760" y="140" width="120" height="60" as="geometry" />
        </mxCell>
        <mxCell id="xCjP7E_u_oAMayQavCic-13" value="" style="endArrow=classic;html=1;rounded=0;exitX=1;exitY=0.5;exitDx=0;exitDy=0;entryX=0;entryY=0.5;entryDx=0;entryDy=0;" edge="1" parent="1" source="xCjP7E_u_oAMayQavCic-7" target="xCjP7E_u_oAMayQavCic-12">
          <mxGeometry width="50" height="50" relative="1" as="geometry">
            <mxPoint x="700" y="370" as="sourcePoint" />
            <mxPoint x="750" y="320" as="targetPoint" />
          </mxGeometry>
        </mxCell>
        <mxCell id="xCjP7E_u_oAMayQavCic-14" value="" style="rhombus;whiteSpace=wrap;html=1;" vertex="1" parent="1">
          <mxGeometry x="800" y="340" width="40" height="24" as="geometry" />
        </mxCell>
        <mxCell id="xCjP7E_u_oAMayQavCic-15" value="" style="endArrow=classic;html=1;rounded=0;exitX=0.5;exitY=1;exitDx=0;exitDy=0;entryX=0.5;entryY=0;entryDx=0;entryDy=0;" edge="1" parent="1" source="xCjP7E_u_oAMayQavCic-12" target="xCjP7E_u_oAMayQavCic-14">
          <mxGeometry width="50" height="50" relative="1" as="geometry">
            <mxPoint x="600" y="370" as="sourcePoint" />
            <mxPoint x="820" y="300" as="targetPoint" />
          </mxGeometry>
        </mxCell>
        <mxCell id="xCjP7E_u_oAMayQavCic-17" value="&lt;font style=&quot;font-size: 14px;&quot;&gt;Lunch paypal actor&lt;/font&gt;" style="rounded=0;whiteSpace=wrap;html=1;" vertex="1" parent="1">
          <mxGeometry x="1030" y="322" width="120" height="60" as="geometry" />
        </mxCell>
        <mxCell id="xCjP7E_u_oAMayQavCic-18" value="" style="endArrow=classic;html=1;rounded=0;exitX=1;exitY=0.5;exitDx=0;exitDy=0;entryX=0;entryY=0.5;entryDx=0;entryDy=0;" edge="1" parent="1" source="xCjP7E_u_oAMayQavCic-14" target="xCjP7E_u_oAMayQavCic-17">
          <mxGeometry width="50" height="50" relative="1" as="geometry">
            <mxPoint x="670" y="370" as="sourcePoint" />
            <mxPoint x="720" y="320" as="targetPoint" />
          </mxGeometry>
        </mxCell>
        <mxCell id="xCjP7E_u_oAMayQavCic-19" value="&lt;font style=&quot;font-size: 14px;&quot;&gt;[pay_action===paypal]&lt;/font&gt;" style="text;html=1;strokeColor=none;fillColor=none;align=center;verticalAlign=middle;whiteSpace=wrap;rounded=0;" vertex="1" parent="1">
          <mxGeometry x="910" y="320" width="60" height="30" as="geometry" />
        </mxCell>
        <mxCell id="xCjP7E_u_oAMayQavCic-21" value="&lt;font style=&quot;font-size: 14px;&quot;&gt;[pay_action===reception]&lt;/font&gt;" style="text;html=1;strokeColor=none;fillColor=none;align=center;verticalAlign=middle;whiteSpace=wrap;rounded=0;" vertex="1" parent="1">
          <mxGeometry x="690" y="320" width="60" height="30" as="geometry" />
        </mxCell>
        <mxCell id="xCjP7E_u_oAMayQavCic-25" value="" style="rhombus;whiteSpace=wrap;html=1;" vertex="1" parent="1">
          <mxGeometry x="1070" y="510" width="40" height="24" as="geometry" />
        </mxCell>
        <mxCell id="xCjP7E_u_oAMayQavCic-26" value="" style="endArrow=classic;html=1;rounded=0;exitX=0.5;exitY=1;exitDx=0;exitDy=0;entryX=0.5;entryY=0;entryDx=0;entryDy=0;" edge="1" parent="1" source="xCjP7E_u_oAMayQavCic-17" target="xCjP7E_u_oAMayQavCic-25">
          <mxGeometry width="50" height="50" relative="1" as="geometry">
            <mxPoint x="850" y="362" as="sourcePoint" />
            <mxPoint x="1040" y="362" as="targetPoint" />
          </mxGeometry>
        </mxCell>
        <mxCell id="xCjP7E_u_oAMayQavCic-27" value="&lt;font style=&quot;font-size: 14px;&quot;&gt;Generate recipt&lt;/font&gt;" style="rounded=0;whiteSpace=wrap;html=1;" vertex="1" parent="1">
          <mxGeometry x="640" y="710" width="120" height="60" as="geometry" />
        </mxCell>
        <mxCell id="xCjP7E_u_oAMayQavCic-28" value="" style="endArrow=none;html=1;rounded=0;" edge="1" parent="1">
          <mxGeometry width="50" height="50" relative="1" as="geometry">
            <mxPoint x="640" y="650" as="sourcePoint" />
            <mxPoint x="1100" y="650" as="targetPoint" />
          </mxGeometry>
        </mxCell>
        <mxCell id="xCjP7E_u_oAMayQavCic-34" value="" style="endArrow=none;html=1;rounded=0;entryX=0;entryY=0.5;entryDx=0;entryDy=0;startArrow=classic;startFill=1;" edge="1" parent="1" source="xCjP7E_u_oAMayQavCic-35" target="xCjP7E_u_oAMayQavCic-25">
          <mxGeometry width="50" height="50" relative="1" as="geometry">
            <mxPoint x="830" y="522" as="sourcePoint" />
            <mxPoint x="1070" y="520" as="targetPoint" />
          </mxGeometry>
        </mxCell>
        <mxCell id="xCjP7E_u_oAMayQavCic-36" value="" style="endArrow=none;html=1;rounded=0;entryX=0;entryY=0.5;entryDx=0;entryDy=0;" edge="1" parent="1" target="xCjP7E_u_oAMayQavCic-35">
          <mxGeometry width="50" height="50" relative="1" as="geometry">
            <mxPoint x="830" y="522" as="sourcePoint" />
            <mxPoint x="1070" y="522" as="targetPoint" />
          </mxGeometry>
        </mxCell>
        <mxCell id="xCjP7E_u_oAMayQavCic-35" value="" style="rhombus;whiteSpace=wrap;html=1;" vertex="1" parent="1">
          <mxGeometry x="800" y="510" width="40" height="24" as="geometry" />
        </mxCell>
        <mxCell id="xCjP7E_u_oAMayQavCic-37" value="" style="endArrow=classic;html=1;rounded=0;exitX=0.5;exitY=1;exitDx=0;exitDy=0;" edge="1" parent="1" source="xCjP7E_u_oAMayQavCic-35">
          <mxGeometry width="50" height="50" relative="1" as="geometry">
            <mxPoint x="910" y="570" as="sourcePoint" />
            <mxPoint x="820" y="650" as="targetPoint" />
          </mxGeometry>
        </mxCell>
        <mxCell id="xCjP7E_u_oAMayQavCic-38" value="&lt;font style=&quot;font-size: 14px;&quot;&gt;[Transaction_result=successful]&lt;/font&gt;" style="text;html=1;strokeColor=none;fillColor=none;align=center;verticalAlign=middle;whiteSpace=wrap;rounded=0;" vertex="1" parent="1">
          <mxGeometry x="920" y="490" width="60" height="30" as="geometry" />
        </mxCell>
        <mxCell id="xCjP7E_u_oAMayQavCic-40" value="" style="endArrow=none;html=1;rounded=0;" edge="1" parent="1">
          <mxGeometry width="50" height="50" relative="1" as="geometry">
            <mxPoint x="560" y="260" as="sourcePoint" />
            <mxPoint x="560" y="520" as="targetPoint" />
          </mxGeometry>
        </mxCell>
        <mxCell id="xCjP7E_u_oAMayQavCic-41" value="" style="endArrow=classic;html=1;rounded=0;exitX=0;exitY=0.5;exitDx=0;exitDy=0;" edge="1" parent="1" source="xCjP7E_u_oAMayQavCic-14">
          <mxGeometry width="50" height="50" relative="1" as="geometry">
            <mxPoint x="640" y="370" as="sourcePoint" />
            <mxPoint x="560" y="352" as="targetPoint" />
          </mxGeometry>
        </mxCell>
        <mxCell id="xCjP7E_u_oAMayQavCic-42" value="" style="endArrow=classic;html=1;rounded=0;" edge="1" parent="1">
          <mxGeometry width="50" height="50" relative="1" as="geometry">
            <mxPoint x="560" y="320" as="sourcePoint" />
            <mxPoint x="450" y="320" as="targetPoint" />
          </mxGeometry>
        </mxCell>
        <mxCell id="xCjP7E_u_oAMayQavCic-46" value="" style="shape=collate;whiteSpace=wrap;html=1;" vertex="1" parent="1">
          <mxGeometry x="430" y="300" width="30" height="40" as="geometry" />
        </mxCell>
        <mxCell id="xCjP7E_u_oAMayQavCic-47" value="5 days" style="text;whiteSpace=wrap;html=1;" vertex="1" parent="1">
          <mxGeometry x="420" y="270" width="105" height="20" as="geometry" />
        </mxCell>
        <mxCell id="xCjP7E_u_oAMayQavCic-48" value="" style="endArrow=classic;html=1;rounded=0;entryX=1;entryY=0.5;entryDx=0;entryDy=0;" edge="1" parent="1" target="xCjP7E_u_oAMayQavCic-49">
          <mxGeometry width="50" height="50" relative="1" as="geometry">
            <mxPoint x="560" y="410" as="sourcePoint" />
            <mxPoint x="480" y="410" as="targetPoint" />
          </mxGeometry>
        </mxCell>
        <mxCell id="xCjP7E_u_oAMayQavCic-49" value="&lt;font style=&quot;font-size: 14px;&quot;&gt;Send email to remind payment&lt;/font&gt;" style="rounded=0;whiteSpace=wrap;html=1;" vertex="1" parent="1">
          <mxGeometry x="385" y="382" width="120" height="60" as="geometry" />
        </mxCell>
        <mxCell id="xCjP7E_u_oAMayQavCic-51" value="" style="endArrow=none;html=1;rounded=0;startArrow=openThin;startFill=0;" edge="1" parent="1">
          <mxGeometry width="50" height="50" relative="1" as="geometry">
            <mxPoint x="410" y="620" as="sourcePoint" />
            <mxPoint x="330" y="440" as="targetPoint" />
            <Array as="points">
              <mxPoint x="280" y="620" />
              <mxPoint x="280" y="460" />
              <mxPoint x="280" y="440" />
            </Array>
          </mxGeometry>
        </mxCell>
        <mxCell id="xCjP7E_u_oAMayQavCic-52" value="&lt;font style=&quot;font-size: 14px;&quot;&gt;Payment validation at reception&lt;/font&gt;" style="rounded=0;whiteSpace=wrap;html=1;" vertex="1" parent="1">
          <mxGeometry x="412.5" y="590" width="120" height="60" as="geometry" />
        </mxCell>
        <mxCell id="xCjP7E_u_oAMayQavCic-53" value="" style="endArrow=classic;html=1;rounded=0;exitX=1;exitY=0.5;exitDx=0;exitDy=0;entryX=0;entryY=0.5;entryDx=0;entryDy=0;" edge="1" parent="1" source="xCjP7E_u_oAMayQavCic-52" target="xCjP7E_u_oAMayQavCic-35">
          <mxGeometry width="50" height="50" relative="1" as="geometry">
            <mxPoint x="520" y="470" as="sourcePoint" />
            <mxPoint x="570" y="420" as="targetPoint" />
            <Array as="points">
              <mxPoint x="630" y="620" />
              <mxPoint x="630" y="522" />
            </Array>
          </mxGeometry>
        </mxCell>
        <mxCell id="xCjP7E_u_oAMayQavCic-54" value="" style="rhombus;whiteSpace=wrap;html=1;" vertex="1" parent="1">
          <mxGeometry x="1315" y="510" width="40" height="24" as="geometry" />
        </mxCell>
        <mxCell id="xCjP7E_u_oAMayQavCic-55" value="" style="endArrow=classic;html=1;rounded=0;exitX=1;exitY=0.5;exitDx=0;exitDy=0;entryX=0;entryY=0.5;entryDx=0;entryDy=0;" edge="1" parent="1" source="xCjP7E_u_oAMayQavCic-25" target="xCjP7E_u_oAMayQavCic-54">
          <mxGeometry width="50" height="50" relative="1" as="geometry">
            <mxPoint x="1100" y="392" as="sourcePoint" />
            <mxPoint x="1100" y="520" as="targetPoint" />
          </mxGeometry>
        </mxCell>
        <mxCell id="xCjP7E_u_oAMayQavCic-56" value="" style="endArrow=classic;html=1;rounded=0;exitX=0.5;exitY=0;exitDx=0;exitDy=0;entryX=1;entryY=0.5;entryDx=0;entryDy=0;" edge="1" parent="1" source="xCjP7E_u_oAMayQavCic-54" target="xCjP7E_u_oAMayQavCic-17">
          <mxGeometry width="50" height="50" relative="1" as="geometry">
            <mxPoint x="1120" y="532" as="sourcePoint" />
            <mxPoint x="1325" y="532" as="targetPoint" />
            <Array as="points">
              <mxPoint x="1340" y="352" />
            </Array>
          </mxGeometry>
        </mxCell>
        <mxCell id="xCjP7E_u_oAMayQavCic-59" value="&lt;font style=&quot;font-size: 14px;&quot;&gt;[Tries&amp;lt;=5]&lt;/font&gt;" style="text;html=1;strokeColor=none;fillColor=none;align=center;verticalAlign=middle;whiteSpace=wrap;rounded=0;" vertex="1" parent="1">
          <mxGeometry x="1355" y="450" width="60" height="30" as="geometry" />
        </mxCell>
        <mxCell id="xCjP7E_u_oAMayQavCic-60" value="&lt;font style=&quot;font-size: 14px;&quot;&gt;Update membership&lt;/font&gt;" style="rounded=0;whiteSpace=wrap;html=1;" vertex="1" parent="1">
          <mxGeometry x="780" y="710" width="120" height="60" as="geometry" />
        </mxCell>
        <mxCell id="xCjP7E_u_oAMayQavCic-61" value="&lt;font style=&quot;font-size: 14px;&quot;&gt;Notify the correct membership activation&lt;/font&gt;" style="rounded=0;whiteSpace=wrap;html=1;" vertex="1" parent="1">
          <mxGeometry x="920" y="710" width="120" height="60" as="geometry" />
        </mxCell>
        <mxCell id="xCjP7E_u_oAMayQavCic-62" value="" style="endArrow=classic;html=1;rounded=0;entryX=0.37;entryY=-0.047;entryDx=0;entryDy=0;entryPerimeter=0;" edge="1" parent="1" target="xCjP7E_u_oAMayQavCic-27">
          <mxGeometry width="50" height="50" relative="1" as="geometry">
            <mxPoint x="680" y="650" as="sourcePoint" />
            <mxPoint x="700" y="796" as="targetPoint" />
          </mxGeometry>
        </mxCell>
        <mxCell id="xCjP7E_u_oAMayQavCic-64" value="" style="endArrow=classic;html=1;rounded=0;entryX=0.5;entryY=0;entryDx=0;entryDy=0;" edge="1" parent="1" target="xCjP7E_u_oAMayQavCic-60">
          <mxGeometry width="50" height="50" relative="1" as="geometry">
            <mxPoint x="840" y="650" as="sourcePoint" />
            <mxPoint x="830" y="660" as="targetPoint" />
          </mxGeometry>
        </mxCell>
        <mxCell id="xCjP7E_u_oAMayQavCic-65" value="" style="endArrow=classic;html=1;rounded=0;entryX=0.5;entryY=0;entryDx=0;entryDy=0;" edge="1" parent="1" target="xCjP7E_u_oAMayQavCic-61">
          <mxGeometry width="50" height="50" relative="1" as="geometry">
            <mxPoint x="980" y="650" as="sourcePoint" />
            <mxPoint x="840" y="670" as="targetPoint" />
          </mxGeometry>
        </mxCell>
        <mxCell id="xCjP7E_u_oAMayQavCic-66" value="" style="endArrow=none;html=1;rounded=0;" edge="1" parent="1">
          <mxGeometry width="50" height="50" relative="1" as="geometry">
            <mxPoint x="620" y="830" as="sourcePoint" />
            <mxPoint x="1110" y="830" as="targetPoint" />
          </mxGeometry>
        </mxCell>
        <mxCell id="xCjP7E_u_oAMayQavCic-67" value="" style="endArrow=classic;html=1;rounded=0;entryX=0.5;entryY=0;entryDx=0;entryDy=0;" edge="1" parent="1">
          <mxGeometry width="50" height="50" relative="1" as="geometry">
            <mxPoint x="840" y="770" as="sourcePoint" />
            <mxPoint x="840" y="830" as="targetPoint" />
          </mxGeometry>
        </mxCell>
        <mxCell id="xCjP7E_u_oAMayQavCic-68" value="" style="endArrow=classic;html=1;rounded=0;entryX=0.5;entryY=0;entryDx=0;entryDy=0;" edge="1" parent="1">
          <mxGeometry width="50" height="50" relative="1" as="geometry">
            <mxPoint x="690" y="770" as="sourcePoint" />
            <mxPoint x="690" y="830" as="targetPoint" />
          </mxGeometry>
        </mxCell>
        <mxCell id="xCjP7E_u_oAMayQavCic-69" value="" style="endArrow=classic;html=1;rounded=0;entryX=0.5;entryY=0;entryDx=0;entryDy=0;" edge="1" parent="1">
          <mxGeometry width="50" height="50" relative="1" as="geometry">
            <mxPoint x="980" y="770" as="sourcePoint" />
            <mxPoint x="980" y="830" as="targetPoint" />
          </mxGeometry>
        </mxCell>
        <mxCell id="xCjP7E_u_oAMayQavCic-70" value="" style="ellipse;whiteSpace=wrap;html=1;aspect=fixed;" vertex="1" parent="1">
          <mxGeometry x="820" y="1020" width="40" height="40" as="geometry" />
        </mxCell>
        <mxCell id="xCjP7E_u_oAMayQavCic-71" value="" style="ellipse;whiteSpace=wrap;html=1;aspect=fixed;fillColor=#080808;" vertex="1" parent="1">
          <mxGeometry x="825" y="1025" width="30" height="30" as="geometry" />
        </mxCell>
        <mxCell id="xCjP7E_u_oAMayQavCic-72" value="" style="rhombus;whiteSpace=wrap;html=1;" vertex="1" parent="1">
          <mxGeometry x="820" y="920" width="40" height="24" as="geometry" />
        </mxCell>
        <mxCell id="xCjP7E_u_oAMayQavCic-73" value="" style="endArrow=classic;html=1;rounded=0;entryX=0.5;entryY=0;entryDx=0;entryDy=0;" edge="1" parent="1" target="xCjP7E_u_oAMayQavCic-72">
          <mxGeometry width="50" height="50" relative="1" as="geometry">
            <mxPoint x="840" y="830" as="sourcePoint" />
            <mxPoint x="790" y="770" as="targetPoint" />
          </mxGeometry>
        </mxCell>
        <mxCell id="xCjP7E_u_oAMayQavCic-74" value="&lt;font style=&quot;font-size: 14px;&quot;&gt;[Transaction_result=error]&lt;/font&gt;" style="text;html=1;strokeColor=none;fillColor=none;align=center;verticalAlign=middle;whiteSpace=wrap;rounded=0;" vertex="1" parent="1">
          <mxGeometry x="1190" y="490" width="60" height="30" as="geometry" />
        </mxCell>
        <mxCell id="xCjP7E_u_oAMayQavCic-75" value="" style="endArrow=classic;html=1;rounded=0;entryX=0.5;entryY=0;entryDx=0;entryDy=0;exitX=0.5;exitY=1;exitDx=0;exitDy=0;" edge="1" parent="1" source="xCjP7E_u_oAMayQavCic-72" target="xCjP7E_u_oAMayQavCic-71">
          <mxGeometry width="50" height="50" relative="1" as="geometry">
            <mxPoint x="820" y="990" as="sourcePoint" />
            <mxPoint x="820" y="1080" as="targetPoint" />
          </mxGeometry>
        </mxCell>
        <mxCell id="xCjP7E_u_oAMayQavCic-76" value="" style="endArrow=classic;html=1;rounded=0;entryX=0;entryY=0.5;entryDx=0;entryDy=0;" edge="1" parent="1" target="xCjP7E_u_oAMayQavCic-72">
          <mxGeometry width="50" height="50" relative="1" as="geometry">
            <mxPoint x="710" y="932" as="sourcePoint" />
            <mxPoint x="810" y="930" as="targetPoint" />
            <Array as="points" />
          </mxGeometry>
        </mxCell>
        <mxCell id="xCjP7E_u_oAMayQavCic-77" value="" style="endArrow=classic;html=1;rounded=0;exitX=0;exitY=0.5;exitDx=0;exitDy=0;entryX=0;entryY=0.5;entryDx=0;entryDy=0;" edge="1" parent="1" source="xCjP7E_u_oAMayQavCic-46" target="xCjP7E_u_oAMayQavCic-16">
          <mxGeometry width="50" height="50" relative="1" as="geometry">
            <mxPoint x="430" y="320" as="sourcePoint" />
            <mxPoint x="820" y="932" as="targetPoint" />
            <Array as="points">
              <mxPoint x="200" y="320" />
              <mxPoint x="200" y="640" />
              <mxPoint x="200" y="930" />
            </Array>
          </mxGeometry>
        </mxCell>
        <mxCell id="xCjP7E_u_oAMayQavCic-16" value="&lt;font style=&quot;font-size: 14px;&quot;&gt;Payment time window ended&lt;/font&gt;" style="rounded=0;whiteSpace=wrap;html=1;" vertex="1" parent="1">
          <mxGeometry x="340" y="900" width="120" height="60" as="geometry" />
        </mxCell>
        <mxCell id="xCjP7E_u_oAMayQavCic-78" value="&lt;span style=&quot;font-size: 14px;&quot;&gt;Notify reception&amp;nbsp;&lt;/span&gt;" style="rounded=0;whiteSpace=wrap;html=1;" vertex="1" parent="1">
          <mxGeometry x="385" y="460" width="120" height="60" as="geometry" />
        </mxCell>
        <mxCell id="xCjP7E_u_oAMayQavCic-79" value="" style="endArrow=classic;html=1;rounded=0;" edge="1" parent="1">
          <mxGeometry width="50" height="50" relative="1" as="geometry">
            <mxPoint x="560" y="492" as="sourcePoint" />
            <mxPoint x="510" y="492" as="targetPoint" />
          </mxGeometry>
        </mxCell>
        <mxCell id="xCjP7E_u_oAMayQavCic-80" value="" style="endArrow=none;html=1;rounded=0;" edge="1" parent="1">
          <mxGeometry width="50" height="50" relative="1" as="geometry">
            <mxPoint x="330" y="490" as="sourcePoint" />
            <mxPoint x="330" y="390" as="targetPoint" />
          </mxGeometry>
        </mxCell>
        <mxCell id="xCjP7E_u_oAMayQavCic-81" value="" style="endArrow=classic;html=1;rounded=0;" edge="1" parent="1">
          <mxGeometry width="50" height="50" relative="1" as="geometry">
            <mxPoint x="380" y="410" as="sourcePoint" />
            <mxPoint x="330" y="410" as="targetPoint" />
          </mxGeometry>
        </mxCell>
        <mxCell id="xCjP7E_u_oAMayQavCic-82" value="" style="endArrow=classic;html=1;rounded=0;" edge="1" parent="1">
          <mxGeometry width="50" height="50" relative="1" as="geometry">
            <mxPoint x="385" y="480" as="sourcePoint" />
            <mxPoint x="335" y="480" as="targetPoint" />
          </mxGeometry>
        </mxCell>
        <mxCell id="xCjP7E_u_oAMayQavCic-83" value="&lt;span style=&quot;font-size: 14px;&quot;&gt;Notify&lt;/span&gt;" style="rounded=0;whiteSpace=wrap;html=1;" vertex="1" parent="1">
          <mxGeometry x="590" y="902" width="120" height="60" as="geometry" />
        </mxCell>
        <mxCell id="xCjP7E_u_oAMayQavCic-84" value="" style="endArrow=classic;html=1;rounded=0;entryX=0;entryY=0.5;entryDx=0;entryDy=0;" edge="1" parent="1" target="xCjP7E_u_oAMayQavCic-83">
          <mxGeometry width="50" height="50" relative="1" as="geometry">
            <mxPoint x="460" y="929.41" as="sourcePoint" />
            <mxPoint x="570" y="929.41" as="targetPoint" />
            <Array as="points" />
          </mxGeometry>
        </mxCell>
        <mxCell id="xCjP7E_u_oAMayQavCic-86" value="" style="endArrow=classic;html=1;rounded=0;exitX=1;exitY=0.5;exitDx=0;exitDy=0;" edge="1" parent="1" source="xCjP7E_u_oAMayQavCic-54">
          <mxGeometry width="50" height="50" relative="1" as="geometry">
            <mxPoint x="1120" y="760" as="sourcePoint" />
            <mxPoint x="1360" y="940" as="targetPoint" />
            <Array as="points">
              <mxPoint x="1430" y="522" />
              <mxPoint x="1430" y="750" />
              <mxPoint x="1430" y="940" />
            </Array>
          </mxGeometry>
        </mxCell>
        <mxCell id="xCjP7E_u_oAMayQavCic-87" value="&lt;font style=&quot;font-size: 14px;&quot;&gt;Print error message&lt;/font&gt;" style="rounded=0;whiteSpace=wrap;html=1;" vertex="1" parent="1">
          <mxGeometry x="1235" y="900" width="120" height="60" as="geometry" />
        </mxCell>
        <mxCell id="xCjP7E_u_oAMayQavCic-88" value="" style="endArrow=classic;html=1;rounded=0;entryX=1;entryY=0.5;entryDx=0;entryDy=0;exitX=0;exitY=0.5;exitDx=0;exitDy=0;" edge="1" parent="1" source="xCjP7E_u_oAMayQavCic-87" target="xCjP7E_u_oAMayQavCic-72">
          <mxGeometry width="50" height="50" relative="1" as="geometry">
            <mxPoint x="1230" y="940" as="sourcePoint" />
            <mxPoint x="1170" y="940" as="targetPoint" />
          </mxGeometry>
        </mxCell>
        <mxCell id="xCjP7E_u_oAMayQavCic-90" value="&lt;font style=&quot;font-size: 14px;&quot;&gt;[Tries&amp;gt;5]&lt;/font&gt;" style="text;html=1;strokeColor=none;fillColor=none;align=center;verticalAlign=middle;whiteSpace=wrap;rounded=0;" vertex="1" parent="1">
          <mxGeometry x="1450" y="520" width="60" height="30" as="geometry" />
        </mxCell>
        <mxCell id="xCjP7E_u_oAMayQavCic-91" value="" style="rounded=0;whiteSpace=wrap;html=1;" vertex="1" parent="1">
          <mxGeometry x="1660" y="260" width="360" height="760" as="geometry" />
        </mxCell>
        <mxCell id="xCjP7E_u_oAMayQavCic-92" value="" style="ellipse;whiteSpace=wrap;html=1;aspect=fixed;fillColor=#080808;" vertex="1" parent="1">
          <mxGeometry x="1825" y="301" width="30" height="30" as="geometry" />
        </mxCell>
        <mxCell id="xCjP7E_u_oAMayQavCic-93" value="&lt;div&gt;&lt;font style=&quot;font-size: 18px;&quot;&gt;Login*&lt;/font&gt;&lt;/div&gt;" style="text;html=1;strokeColor=none;fillColor=none;align=center;verticalAlign=middle;whiteSpace=wrap;rounded=0;" vertex="1" parent="1">
          <mxGeometry x="1660" y="260" width="60" height="30" as="geometry" />
        </mxCell>
        <mxCell id="xCjP7E_u_oAMayQavCic-94" style="edgeStyle=orthogonalEdgeStyle;rounded=0;orthogonalLoop=1;jettySize=auto;html=1;exitX=0.5;exitY=1;exitDx=0;exitDy=0;entryX=0.5;entryY=0;entryDx=0;entryDy=0;" edge="1" parent="1" source="xCjP7E_u_oAMayQavCic-92" target="xCjP7E_u_oAMayQavCic-96">
          <mxGeometry relative="1" as="geometry">
            <mxPoint x="1995.06" y="360" as="targetPoint" />
            <mxPoint x="1844.9993939393935" y="360.030303030303" as="sourcePoint" />
          </mxGeometry>
        </mxCell>
        <mxCell id="xCjP7E_u_oAMayQavCic-95" style="edgeStyle=orthogonalEdgeStyle;rounded=0;orthogonalLoop=1;jettySize=auto;html=1;exitX=0.5;exitY=1;exitDx=0;exitDy=0;" edge="1" parent="1" source="xCjP7E_u_oAMayQavCic-96">
          <mxGeometry relative="1" as="geometry">
            <mxPoint x="1840" y="450" as="targetPoint" />
          </mxGeometry>
        </mxCell>
        <mxCell id="xCjP7E_u_oAMayQavCic-96" value="" style="rhombus;whiteSpace=wrap;html=1;" vertex="1" parent="1">
          <mxGeometry x="1830" y="381" width="20" height="10" as="geometry" />
        </mxCell>
        <mxCell id="xCjP7E_u_oAMayQavCic-98" value="Insert Username" style="rounded=0;whiteSpace=wrap;html=1;" vertex="1" parent="1">
          <mxGeometry x="1800" y="515" width="80" height="40" as="geometry" />
        </mxCell>
        <mxCell id="xCjP7E_u_oAMayQavCic-99" value="" style="endArrow=classic;html=1;rounded=0;entryX=0.5;entryY=0;entryDx=0;entryDy=0;" edge="1" parent="1" target="xCjP7E_u_oAMayQavCic-98">
          <mxGeometry width="50" height="50" relative="1" as="geometry">
            <mxPoint x="1840" y="451" as="sourcePoint" />
            <mxPoint x="1930" y="490.5" as="targetPoint" />
          </mxGeometry>
        </mxCell>
        <mxCell id="xCjP7E_u_oAMayQavCic-100" value="&lt;div&gt;&lt;br&gt;&lt;/div&gt;&lt;div&gt;&lt;br&gt;&lt;/div&gt;" style="edgeLabel;html=1;align=center;verticalAlign=middle;resizable=0;points=[];" vertex="1" connectable="0" parent="xCjP7E_u_oAMayQavCic-99">
          <mxGeometry x="0.2357" y="1" relative="1" as="geometry">
            <mxPoint x="-27" y="-8" as="offset" />
          </mxGeometry>
        </mxCell>
        <mxCell id="xCjP7E_u_oAMayQavCic-102" value="" style="endArrow=classic;html=1;rounded=0;exitX=0.5;exitY=1;exitDx=0;exitDy=0;entryX=0.5;entryY=0;entryDx=0;entryDy=0;" edge="1" parent="1" source="xCjP7E_u_oAMayQavCic-98" target="xCjP7E_u_oAMayQavCic-111">
          <mxGeometry width="50" height="50" relative="1" as="geometry">
            <mxPoint x="1850" y="461" as="sourcePoint" />
            <mxPoint x="1840" y="620" as="targetPoint" />
          </mxGeometry>
        </mxCell>
        <mxCell id="xCjP7E_u_oAMayQavCic-103" value="&lt;div&gt;&lt;br&gt;&lt;/div&gt;&lt;div&gt;&lt;br&gt;&lt;/div&gt;" style="edgeLabel;html=1;align=center;verticalAlign=middle;resizable=0;points=[];" vertex="1" connectable="0" parent="xCjP7E_u_oAMayQavCic-102">
          <mxGeometry x="0.2357" y="1" relative="1" as="geometry">
            <mxPoint x="-27" y="-8" as="offset" />
          </mxGeometry>
        </mxCell>
        <mxCell id="xCjP7E_u_oAMayQavCic-110" style="edgeStyle=orthogonalEdgeStyle;rounded=0;orthogonalLoop=1;jettySize=auto;html=1;entryX=0.5;entryY=0;entryDx=0;entryDy=0;" edge="1" parent="1" source="xCjP7E_u_oAMayQavCic-111" target="xCjP7E_u_oAMayQavCic-114">
          <mxGeometry relative="1" as="geometry" />
        </mxCell>
        <mxCell id="xCjP7E_u_oAMayQavCic-111" value="Check Credientals on DB" style="rounded=0;whiteSpace=wrap;html=1;" vertex="1" parent="1">
          <mxGeometry x="1800" y="676" width="80" height="40" as="geometry" />
        </mxCell>
        <mxCell id="xCjP7E_u_oAMayQavCic-112" style="edgeStyle=orthogonalEdgeStyle;rounded=0;orthogonalLoop=1;jettySize=auto;html=1;exitX=1;exitY=0.5;exitDx=0;exitDy=0;" edge="1" parent="1" source="xCjP7E_u_oAMayQavCic-114" target="xCjP7E_u_oAMayQavCic-115">
          <mxGeometry relative="1" as="geometry" />
        </mxCell>
        <mxCell id="xCjP7E_u_oAMayQavCic-113" style="edgeStyle=orthogonalEdgeStyle;rounded=0;orthogonalLoop=1;jettySize=auto;html=1;" edge="1" parent="1" source="xCjP7E_u_oAMayQavCic-114">
          <mxGeometry relative="1" as="geometry">
            <mxPoint x="1840" y="800" as="targetPoint" />
          </mxGeometry>
        </mxCell>
        <mxCell id="xCjP7E_u_oAMayQavCic-114" value="" style="rhombus;whiteSpace=wrap;html=1;" vertex="1" parent="1">
          <mxGeometry x="1830" y="751" width="20" height="10" as="geometry" />
        </mxCell>
        <mxCell id="xCjP7E_u_oAMayQavCic-115" value="" style="ellipse;whiteSpace=wrap;html=1;aspect=fixed;" vertex="1" parent="1">
          <mxGeometry x="1960" y="736" width="40" height="40" as="geometry" />
        </mxCell>
        <mxCell id="xCjP7E_u_oAMayQavCic-116" value="" style="ellipse;whiteSpace=wrap;html=1;aspect=fixed;fillColor=#080808;" vertex="1" parent="1">
          <mxGeometry x="1965" y="741" width="30" height="30" as="geometry" />
        </mxCell>
        <mxCell id="xCjP7E_u_oAMayQavCic-117" value="[credentials match]" style="edgeLabel;html=1;align=center;verticalAlign=middle;resizable=0;points=[];" vertex="1" connectable="0" parent="1">
          <mxGeometry x="1900.0003448275866" y="763" as="geometry" />
        </mxCell>
        <mxCell id="xCjP7E_u_oAMayQavCic-119" value="Display Error Message" style="rounded=0;whiteSpace=wrap;html=1;" vertex="1" parent="1">
          <mxGeometry x="1800" y="866" width="80" height="40" as="geometry" />
        </mxCell>
        <mxCell id="xCjP7E_u_oAMayQavCic-120" value="" style="endArrow=classic;html=1;rounded=0;entryX=0.5;entryY=0;entryDx=0;entryDy=0;" edge="1" parent="1" target="xCjP7E_u_oAMayQavCic-119">
          <mxGeometry width="50" height="50" relative="1" as="geometry">
            <mxPoint x="1840" y="800.5" as="sourcePoint" />
            <mxPoint x="1930" y="840" as="targetPoint" />
          </mxGeometry>
        </mxCell>
        <mxCell id="xCjP7E_u_oAMayQavCic-121" value="&lt;div&gt;&lt;br&gt;&lt;/div&gt;&lt;div&gt;&lt;br&gt;&lt;/div&gt;" style="edgeLabel;html=1;align=center;verticalAlign=middle;resizable=0;points=[];" vertex="1" connectable="0" parent="xCjP7E_u_oAMayQavCic-120">
          <mxGeometry x="0.2357" y="1" relative="1" as="geometry">
            <mxPoint x="-27" y="-8" as="offset" />
          </mxGeometry>
        </mxCell>
        <mxCell id="xCjP7E_u_oAMayQavCic-123" value="" style="endArrow=classic;html=1;rounded=0;exitX=0.5;exitY=1;exitDx=0;exitDy=0;" edge="1" parent="1" source="xCjP7E_u_oAMayQavCic-119">
          <mxGeometry width="50" height="50" relative="1" as="geometry">
            <mxPoint x="1850" y="810.5" as="sourcePoint" />
            <mxPoint x="1840" y="969.5" as="targetPoint" />
          </mxGeometry>
        </mxCell>
        <mxCell id="xCjP7E_u_oAMayQavCic-124" value="&lt;div&gt;&lt;br&gt;&lt;/div&gt;&lt;div&gt;&lt;br&gt;&lt;/div&gt;" style="edgeLabel;html=1;align=center;verticalAlign=middle;resizable=0;points=[];" vertex="1" connectable="0" parent="xCjP7E_u_oAMayQavCic-123">
          <mxGeometry x="0.2357" y="1" relative="1" as="geometry">
            <mxPoint x="-27" y="-8" as="offset" />
          </mxGeometry>
        </mxCell>
        <mxCell id="xCjP7E_u_oAMayQavCic-130" value="30 seconds" style="edgeLabel;html=1;align=center;verticalAlign=middle;resizable=0;points=[];" vertex="1" connectable="0" parent="1">
          <mxGeometry x="1750.0003448275863" y="886" as="geometry" />
        </mxCell>
        <mxCell id="xCjP7E_u_oAMayQavCic-131" style="edgeStyle=orthogonalEdgeStyle;rounded=0;orthogonalLoop=1;jettySize=auto;html=1;entryX=0;entryY=0.5;entryDx=0;entryDy=0;" edge="1" parent="1" target="xCjP7E_u_oAMayQavCic-96">
          <mxGeometry relative="1" as="geometry">
            <mxPoint x="1839.93" y="1009" as="targetPoint" />
            <mxPoint x="1839.93" y="970" as="sourcePoint" />
            <Array as="points">
              <mxPoint x="1840" y="990" />
              <mxPoint x="1700" y="990" />
              <mxPoint x="1700" y="386" />
            </Array>
          </mxGeometry>
        </mxCell>
        <mxCell id="xCjP7E_u_oAMayQavCic-132" value="&lt;font style=&quot;font-size: 35px;&quot;&gt;&lt;i&gt;Pay Membership Activity&lt;/i&gt;&lt;/font&gt;" style="text;html=1;strokeColor=none;fillColor=none;align=center;verticalAlign=middle;whiteSpace=wrap;rounded=0;" vertex="1" parent="1">
          <mxGeometry x="630" y="50" width="660" height="30" as="geometry" />
        </mxCell>
      </root>
    </mxGraphModel>
  </diagram>
</mxfile>
